<svg xmlns="http://www.w3.org/2000/svg" xmlns:xlink="http://www.w3.org/1999/xlink" width="2000" zoomAndPan="magnify" viewBox="0 0 1500 1499.999933" height="2000" preserveAspectRatio="xMidYMid meet" version="1.0"><defs><g/><clipPath id="eead8bdc26"><rect x="0" width="243" y="0" height="501"/></clipPath><clipPath id="0fb3b3162f"><rect x="0" width="263" y="0" height="501"/></clipPath><clipPath id="e0f8d63548"><path d="M 688.378906 738.535156 L 752.167969 738.535156 L 752.167969 859.011719 L 688.378906 859.011719 Z M 688.378906 738.535156 " clip-rule="nonzero"/></clipPath><clipPath id="a0a3d02ff2"><path d="M 0.378906 0.535156 L 64.167969 0.535156 L 64.167969 121 L 0.378906 121 Z M 0.378906 0.535156 " clip-rule="nonzero"/></clipPath><clipPath id="bbb5a54f63"><rect x="0" width="65" y="0" height="122"/></clipPath><clipPath id="5ef874cb43"><path d="M 688.378906 706.640625 L 752.167969 706.640625 L 752.167969 770.429688 L 688.378906 770.429688 Z M 688.378906 706.640625 " clip-rule="nonzero"/></clipPath><clipPath id="7610ca059b"><path d="M 720.273438 706.640625 C 702.660156 706.640625 688.378906 720.917969 688.378906 738.535156 C 688.378906 756.152344 702.660156 770.429688 720.273438 770.429688 C 737.890625 770.429688 752.167969 756.152344 752.167969 738.535156 C 752.167969 720.917969 737.890625 706.640625 720.273438 706.640625 Z M 720.273438 706.640625 " clip-rule="nonzero"/></clipPath><clipPath id="e5745a81a3"><path d="M 0.378906 0.640625 L 64.167969 0.640625 L 64.167969 64.429688 L 0.378906 64.429688 Z M 0.378906 0.640625 " clip-rule="nonzero"/></clipPath><clipPath id="bb5e645515"><path d="M 32.273438 0.640625 C 14.660156 0.640625 0.378906 14.917969 0.378906 32.535156 C 0.378906 50.152344 14.660156 64.429688 32.273438 64.429688 C 49.890625 64.429688 64.167969 50.152344 64.167969 32.535156 C 64.167969 14.917969 49.890625 0.640625 32.273438 0.640625 Z M 32.273438 0.640625 " clip-rule="nonzero"/></clipPath><clipPath id="61c9a140b4"><rect x="0" width="65" y="0" height="65"/></clipPath><clipPath id="0c04aa9a10"><path d="M 1032.367188 738.535156 L 1096.15625 738.535156 L 1096.15625 859.011719 L 1032.367188 859.011719 Z M 1032.367188 738.535156 " clip-rule="nonzero"/></clipPath><clipPath id="e64300c7df"><path d="M 0.367188 0.535156 L 64.15625 0.535156 L 64.15625 121 L 0.367188 121 Z M 0.367188 0.535156 " clip-rule="nonzero"/></clipPath><clipPath id="c32eed7bc1"><rect x="0" width="65" y="0" height="122"/></clipPath><clipPath id="8f284f2ec2"><path d="M 1032.367188 706.640625 L 1096.15625 706.640625 L 1096.15625 770.429688 L 1032.367188 770.429688 Z M 1032.367188 706.640625 " clip-rule="nonzero"/></clipPath><clipPath id="59253e0808"><path d="M 1064.261719 706.640625 C 1046.644531 706.640625 1032.367188 720.917969 1032.367188 738.535156 C 1032.367188 756.152344 1046.644531 770.429688 1064.261719 770.429688 C 1081.878906 770.429688 1096.15625 756.152344 1096.15625 738.535156 C 1096.15625 720.917969 1081.878906 706.640625 1064.261719 706.640625 Z M 1064.261719 706.640625 " clip-rule="nonzero"/></clipPath><clipPath id="6029a260c7"><path d="M 0.367188 0.640625 L 64.15625 0.640625 L 64.15625 64.429688 L 0.367188 64.429688 Z M 0.367188 0.640625 " clip-rule="nonzero"/></clipPath><clipPath id="354f18d5ac"><path d="M 32.261719 0.640625 C 14.644531 0.640625 0.367188 14.917969 0.367188 32.535156 C 0.367188 50.152344 14.644531 64.429688 32.261719 64.429688 C 49.878906 64.429688 64.15625 50.152344 64.15625 32.535156 C 64.15625 14.917969 49.878906 0.640625 32.261719 0.640625 Z M 32.261719 0.640625 " clip-rule="nonzero"/></clipPath><clipPath id="14e67bfa16"><rect x="0" width="65" y="0" height="65"/></clipPath><clipPath id="9dd46739e6"><rect x="0" width="195" y="0" height="501"/></clipPath><clipPath id="907dffddbc"><path d="M 1038.574219 641.683594 L 1089.949219 641.683594 L 1089.949219 693.058594 L 1038.574219 693.058594 Z M 1038.574219 641.683594 " clip-rule="nonzero"/></clipPath><clipPath id="9ed394133d"><path d="M 1064.261719 641.683594 C 1050.074219 641.683594 1038.574219 653.183594 1038.574219 667.371094 C 1038.574219 681.558594 1050.074219 693.058594 1064.261719 693.058594 C 1078.449219 693.058594 1089.949219 681.558594 1089.949219 667.371094 C 1089.949219 653.183594 1078.449219 641.683594 1064.261719 641.683594 Z M 1064.261719 641.683594 " clip-rule="nonzero"/></clipPath><clipPath id="2bb7af6b37"><path d="M 0.574219 0.683594 L 51.949219 0.683594 L 51.949219 52.058594 L 0.574219 52.058594 Z M 0.574219 0.683594 " clip-rule="nonzero"/></clipPath><clipPath id="99abc0ee27"><path d="M 26.261719 0.683594 C 12.074219 0.683594 0.574219 12.183594 0.574219 26.371094 C 0.574219 40.558594 12.074219 52.058594 26.261719 52.058594 C 40.449219 52.058594 51.949219 40.558594 51.949219 26.371094 C 51.949219 12.183594 40.449219 0.683594 26.261719 0.683594 Z M 26.261719 0.683594 " clip-rule="nonzero"/></clipPath><clipPath id="dbcb3aeee1"><rect x="0" width="52" y="0" height="53"/></clipPath><clipPath id="f3856429d2"><path d="M 694.585938 641.683594 L 745.960938 641.683594 L 745.960938 693.058594 L 694.585938 693.058594 Z M 694.585938 641.683594 " clip-rule="nonzero"/></clipPath><clipPath id="a1961e617a"><path d="M 720.273438 641.683594 C 706.085938 641.683594 694.585938 653.183594 694.585938 667.371094 C 694.585938 681.558594 706.085938 693.058594 720.273438 693.058594 C 734.460938 693.058594 745.960938 681.558594 745.960938 667.371094 C 745.960938 653.183594 734.460938 641.683594 720.273438 641.683594 Z M 720.273438 641.683594 " clip-rule="nonzero"/></clipPath><clipPath id="e617b3ab87"><path d="M 0.585938 0.683594 L 51.960938 0.683594 L 51.960938 52.058594 L 0.585938 52.058594 Z M 0.585938 0.683594 " clip-rule="nonzero"/></clipPath><clipPath id="ca71a96fef"><path d="M 26.273438 0.683594 C 12.085938 0.683594 0.585938 12.183594 0.585938 26.371094 C 0.585938 40.558594 12.085938 52.058594 26.273438 52.058594 C 40.460938 52.058594 51.960938 40.558594 51.960938 26.371094 C 51.960938 12.183594 40.460938 0.683594 26.273438 0.683594 Z M 26.273438 0.683594 " clip-rule="nonzero"/></clipPath><clipPath id="442ae5740b"><rect x="0" width="52" y="0" height="53"/></clipPath><clipPath id="2e241dc371"><path d="M 10.328125 7.5 L 261.730469 7.5 L 261.730469 210.988281 L 10.328125 210.988281 Z M 10.328125 7.5 " clip-rule="nonzero"/></clipPath><clipPath id="59dfc9f59b"><path d="M 10.328125 82.5 L 10.328125 135.984375 C 10.328125 155.875 18.230469 174.949219 32.292969 189.015625 C 46.359375 203.082031 65.4375 210.984375 85.328125 210.984375 L 186.78125 210.984375 C 206.671875 210.984375 225.75 203.082031 239.816406 189.015625 C 253.878906 174.949219 261.78125 155.875 261.78125 135.984375 L 261.78125 82.5 C 261.78125 62.609375 253.878906 43.53125 239.816406 29.46875 C 225.75 15.402344 206.671875 7.5 186.78125 7.5 L 85.328125 7.5 C 65.4375 7.5 46.359375 15.402344 32.292969 29.46875 C 18.230469 43.53125 10.328125 62.609375 10.328125 82.5 Z M 10.328125 82.5 " clip-rule="nonzero"/></clipPath><clipPath id="b501c9e535"><path d="M 0.359375 116.164062 L 20.351562 116.164062 L 20.351562 136.003906 L 0.359375 136.003906 Z M 0.359375 116.164062 " clip-rule="nonzero"/></clipPath><clipPath id="717535424b"><path d="M 10.328125 116.164062 C 4.824219 116.164062 0.359375 120.605469 0.359375 126.085938 C 0.359375 131.5625 4.824219 136.003906 10.328125 136.003906 C 15.832031 136.003906 20.292969 131.5625 20.292969 126.085938 C 20.292969 120.605469 15.832031 116.164062 10.328125 116.164062 Z M 10.328125 116.164062 " clip-rule="nonzero"/></clipPath><clipPath id="4d77553e7d"><path d="M 0.359375 0.164062 L 20.351562 0.164062 L 20.351562 20.003906 L 0.359375 20.003906 Z M 0.359375 0.164062 " clip-rule="nonzero"/></clipPath><clipPath id="a5ac2802c0"><path d="M 10.328125 0.164062 C 4.824219 0.164062 0.359375 4.605469 0.359375 10.085938 C 0.359375 15.5625 4.824219 20.003906 10.328125 20.003906 C 15.832031 20.003906 20.292969 15.5625 20.292969 10.085938 C 20.292969 4.605469 15.832031 0.164062 10.328125 0.164062 Z M 10.328125 0.164062 " clip-rule="nonzero"/></clipPath><clipPath id="3b073ce215"><rect x="0" width="21" y="0" height="21"/></clipPath><clipPath id="c7982880aa"><path d="M 252.398438 116.164062 L 272.390625 116.164062 L 272.390625 136.003906 L 252.398438 136.003906 Z M 252.398438 116.164062 " clip-rule="nonzero"/></clipPath><clipPath id="3a57ba3de9"><path d="M 262.363281 116.164062 C 256.859375 116.164062 252.398438 120.605469 252.398438 126.085938 C 252.398438 131.5625 256.859375 136.003906 262.363281 136.003906 C 267.871094 136.003906 272.332031 131.5625 272.332031 126.085938 C 272.332031 120.605469 267.871094 116.164062 262.363281 116.164062 Z M 262.363281 116.164062 " clip-rule="nonzero"/></clipPath><clipPath id="84c8eac3e5"><path d="M 0.398438 0.164062 L 20.390625 0.164062 L 20.390625 20.003906 L 0.398438 20.003906 Z M 0.398438 0.164062 " clip-rule="nonzero"/></clipPath><clipPath id="7fb0797901"><path d="M 10.363281 0.164062 C 4.859375 0.164062 0.398438 4.605469 0.398438 10.085938 C 0.398438 15.5625 4.859375 20.003906 10.363281 20.003906 C 15.871094 20.003906 20.332031 15.5625 20.332031 10.085938 C 20.332031 4.605469 15.871094 0.164062 10.363281 0.164062 Z M 10.363281 0.164062 " clip-rule="nonzero"/></clipPath><clipPath id="c7b9c932e9"><rect x="0" width="21" y="0" height="21"/></clipPath><clipPath id="880a6d997e"><path d="M 211.070312 116.164062 L 231.0625 116.164062 L 231.0625 136.003906 L 211.070312 136.003906 Z M 211.070312 116.164062 " clip-rule="nonzero"/></clipPath><clipPath id="2bfd9324fc"><path d="M 221.035156 116.164062 C 215.53125 116.164062 211.070312 120.605469 211.070312 126.085938 C 211.070312 131.5625 215.53125 136.003906 221.035156 136.003906 C 226.539062 136.003906 231.003906 131.5625 231.003906 126.085938 C 231.003906 120.605469 226.539062 116.164062 221.035156 116.164062 Z M 221.035156 116.164062 " clip-rule="nonzero"/></clipPath><clipPath id="de556b6327"><path d="M 0.0703125 0.164062 L 20 0.164062 L 20 20.003906 L 0.0703125 20.003906 Z M 0.0703125 0.164062 " clip-rule="nonzero"/></clipPath><clipPath id="a432493498"><path d="M 10.035156 0.164062 C 4.53125 0.164062 0.0703125 4.605469 0.0703125 10.085938 C 0.0703125 15.5625 4.53125 20.003906 10.035156 20.003906 C 15.539062 20.003906 20.003906 15.5625 20.003906 10.085938 C 20.003906 4.605469 15.539062 0.164062 10.035156 0.164062 Z M 10.035156 0.164062 " clip-rule="nonzero"/></clipPath><clipPath id="bab442173a"><rect x="0" width="21" y="0" height="21"/></clipPath><clipPath id="a243573acb"><path d="M 51.652344 116.164062 L 71.644531 116.164062 L 71.644531 136.003906 L 51.652344 136.003906 Z M 51.652344 116.164062 " clip-rule="nonzero"/></clipPath><clipPath id="4b2d5087a1"><path d="M 61.621094 116.164062 C 56.113281 116.164062 51.652344 120.605469 51.652344 126.085938 C 51.652344 131.5625 56.113281 136.003906 61.621094 136.003906 C 67.125 136.003906 71.585938 131.5625 71.585938 126.085938 C 71.585938 120.605469 67.125 116.164062 61.621094 116.164062 Z M 61.621094 116.164062 " clip-rule="nonzero"/></clipPath><clipPath id="a40f23df97"><path d="M 0.652344 0.164062 L 20.644531 0.164062 L 20.644531 20.003906 L 0.652344 20.003906 Z M 0.652344 0.164062 " clip-rule="nonzero"/></clipPath><clipPath id="fc375b5a22"><path d="M 10.621094 0.164062 C 5.113281 0.164062 0.652344 4.605469 0.652344 10.085938 C 0.652344 15.5625 5.113281 20.003906 10.621094 20.003906 C 16.125 20.003906 20.585938 15.5625 20.585938 10.085938 C 20.585938 4.605469 16.125 0.164062 10.621094 0.164062 Z M 10.621094 0.164062 " clip-rule="nonzero"/></clipPath><clipPath id="cb5883d61f"><rect x="0" width="21" y="0" height="21"/></clipPath><clipPath id="b235862cfc"><path d="M 75.90625 72.421875 L 95.898438 72.421875 L 95.898438 92.261719 L 75.90625 92.261719 Z M 75.90625 72.421875 " clip-rule="nonzero"/></clipPath><clipPath id="fffaf9067a"><path d="M 85.875 72.421875 C 80.367188 72.421875 75.90625 76.863281 75.90625 82.339844 C 75.90625 87.820312 80.367188 92.261719 85.875 92.261719 C 91.378906 92.261719 95.839844 87.820312 95.839844 82.339844 C 95.839844 76.863281 91.378906 72.421875 85.875 72.421875 Z M 85.875 72.421875 " clip-rule="nonzero"/></clipPath><clipPath id="3151c601b6"><path d="M 0.90625 0.421875 L 20.898438 0.421875 L 20.898438 20.261719 L 0.90625 20.261719 Z M 0.90625 0.421875 " clip-rule="nonzero"/></clipPath><clipPath id="4483952913"><path d="M 10.875 0.421875 C 5.367188 0.421875 0.90625 4.863281 0.90625 10.339844 C 0.90625 15.820312 5.367188 20.261719 10.875 20.261719 C 16.378906 20.261719 20.839844 15.820312 20.839844 10.339844 C 20.839844 4.863281 16.378906 0.421875 10.875 0.421875 Z M 10.875 0.421875 " clip-rule="nonzero"/></clipPath><clipPath id="01020fce24"><rect x="0" width="21" y="0" height="21"/></clipPath><clipPath id="7c7b75632b"><path d="M 174.707031 0.683594 L 194.699219 0.683594 L 194.699219 20.519531 L 174.707031 20.519531 Z M 174.707031 0.683594 " clip-rule="nonzero"/></clipPath><clipPath id="7c914654da"><path d="M 184.671875 0.683594 C 179.167969 0.683594 174.707031 5.121094 174.707031 10.601562 C 174.707031 16.078125 179.167969 20.519531 184.671875 20.519531 C 190.179688 20.519531 194.640625 16.078125 194.640625 10.601562 C 194.640625 5.121094 190.179688 0.683594 184.671875 0.683594 Z M 184.671875 0.683594 " clip-rule="nonzero"/></clipPath><clipPath id="d260929bb2"><path d="M 0.707031 0.683594 L 20.699219 0.683594 L 20.699219 20.519531 L 0.707031 20.519531 Z M 0.707031 0.683594 " clip-rule="nonzero"/></clipPath><clipPath id="5c584c451d"><path d="M 10.671875 0.683594 C 5.167969 0.683594 0.707031 5.121094 0.707031 10.601562 C 0.707031 16.078125 5.167969 20.519531 10.671875 20.519531 C 16.179688 20.519531 20.640625 16.078125 20.640625 10.601562 C 20.640625 5.121094 16.179688 0.683594 10.671875 0.683594 Z M 10.671875 0.683594 " clip-rule="nonzero"/></clipPath><clipPath id="9eaf881771"><rect x="0" width="21" y="0" height="21"/></clipPath><clipPath id="045b41b2b8"><path d="M 114.089844 198.175781 L 134.082031 198.175781 L 134.082031 218.011719 L 114.089844 218.011719 Z M 114.089844 198.175781 " clip-rule="nonzero"/></clipPath><clipPath id="8e4d38e92f"><path d="M 124.054688 198.175781 C 118.550781 198.175781 114.089844 202.617188 114.089844 208.09375 C 114.089844 213.570312 118.550781 218.011719 124.054688 218.011719 C 129.558594 218.011719 134.023438 213.570312 134.023438 208.09375 C 134.023438 202.617188 129.558594 198.175781 124.054688 198.175781 Z M 124.054688 198.175781 " clip-rule="nonzero"/></clipPath><clipPath id="c82b7fef80"><path d="M 0.0898438 0.175781 L 20.082031 0.175781 L 20.082031 20.011719 L 0.0898438 20.011719 Z M 0.0898438 0.175781 " clip-rule="nonzero"/></clipPath><clipPath id="c7ade387f6"><path d="M 10.054688 0.175781 C 4.550781 0.175781 0.0898438 4.617188 0.0898438 10.09375 C 0.0898438 15.570312 4.550781 20.011719 10.054688 20.011719 C 15.558594 20.011719 20.023438 15.570312 20.023438 10.09375 C 20.023438 4.617188 15.558594 0.175781 10.054688 0.175781 Z M 10.054688 0.175781 " clip-rule="nonzero"/></clipPath><clipPath id="0017effeb5"><rect x="0" width="21" y="0" height="21"/></clipPath><clipPath id="e7b09ef3d2"><rect x="0" width="274" y="0" height="219"/></clipPath></defs><g transform="matrix(1, 0, 0, 1, 452, 499)"><g clip-path="url(#eead8bdc26)"><g fill="#c8ff3d" fill-opacity="1"><g transform="translate(1.504463, 360.413121)"><g><path d="M 119.46875 4.09375 C 107.3125 4.09375 96.78125 1.261719 87.875 -4.390625 C 78.96875 -10.054688 72.734375 -17.816406 69.171875 -27.671875 L 0 -220.078125 L 70.421875 -220.078125 L 117.265625 -63.1875 C 117.679688 -62.351562 118.046875 -61.671875 118.359375 -61.140625 C 118.679688 -60.617188 119.050781 -60.359375 119.46875 -60.359375 C 120.09375 -60.359375 120.613281 -60.566406 121.03125 -60.984375 C 121.457031 -61.410156 121.773438 -62.144531 121.984375 -63.1875 L 167.890625 -220.078125 L 238.9375 -220.078125 L 170.078125 -27.671875 C 166.734375 -17.816406 160.550781 -10.054688 151.53125 -4.390625 C 142.519531 1.261719 131.832031 4.09375 119.46875 4.09375 Z M 119.46875 4.09375 "/></g></g></g></g></g><g transform="matrix(1, 0, 0, 1, 758, 499)"><g clip-path="url(#0fb3b3162f)"><g fill="#c8ff3d" fill-opacity="1"><g transform="translate(1.118446, 360.413121)"><g><path d="M 181.40625 4.09375 C 167.988281 4.09375 155.359375 1.316406 143.515625 -4.234375 C 131.671875 -9.796875 122.082031 -17.921875 114.75 -28.609375 C 107.414062 -39.296875 103.75 -52.289062 103.75 -67.59375 L 103.75 -152.796875 C 103.75 -155.515625 103.171875 -157.867188 102.015625 -159.859375 C 100.867188 -161.859375 99.347656 -163.378906 97.453125 -164.421875 C 95.566406 -165.472656 93.367188 -166 90.859375 -166 C 88.347656 -166 86.09375 -165.472656 84.09375 -164.421875 C 82.101562 -163.378906 80.53125 -161.859375 79.375 -159.859375 C 78.226562 -157.867188 77.65625 -155.515625 77.65625 -152.796875 L 77.65625 0 L 12.890625 0 L 12.890625 -152.171875 C 12.890625 -167.460938 16.503906 -180.453125 23.734375 -191.140625 C 30.960938 -201.835938 40.550781 -210.015625 52.5 -215.671875 C 64.445312 -221.328125 77.234375 -224.15625 90.859375 -224.15625 C 104.484375 -224.15625 117.160156 -221.328125 128.890625 -215.671875 C 140.628906 -210.015625 150.164062 -201.835938 157.5 -191.140625 C 164.84375 -180.453125 168.515625 -167.460938 168.515625 -152.171875 L 168.515625 -66.96875 C 168.515625 -64.238281 169.140625 -61.828125 170.390625 -59.734375 C 171.648438 -57.640625 173.222656 -56.066406 175.109375 -55.015625 C 176.992188 -53.972656 178.988281 -53.453125 181.09375 -53.453125 C 183.394531 -53.453125 185.59375 -53.972656 187.6875 -55.015625 C 189.78125 -56.066406 191.457031 -57.640625 192.71875 -59.734375 C 193.976562 -61.828125 194.609375 -64.238281 194.609375 -66.96875 L 194.609375 -220.078125 L 259.0625 -220.078125 L 259.0625 -67.59375 C 259.0625 -52.289062 255.390625 -39.296875 248.046875 -28.609375 C 240.710938 -17.921875 231.125 -9.796875 219.28125 -4.234375 C 207.445312 1.316406 194.820312 4.09375 181.40625 4.09375 Z M 181.40625 4.09375 "/></g></g></g></g></g><g clip-path="url(#e0f8d63548)"><g transform="matrix(1, 0, 0, 1, 688, 738)"><g clip-path="url(#bbb5a54f63)"><g clip-path="url(#a0a3d02ff2)"><path fill="#c8ff3d" d="M 0.378906 0.535156 L 64.167969 0.535156 L 64.167969 120.890625 L 0.378906 120.890625 Z M 0.378906 0.535156 " fill-opacity="1" fill-rule="nonzero"/></g></g></g></g><g clip-path="url(#5ef874cb43)"><g clip-path="url(#7610ca059b)"><g transform="matrix(1, 0, 0, 1, 688, 706)"><g clip-path="url(#61c9a140b4)"><g clip-path="url(#e5745a81a3)"><g clip-path="url(#bb5e645515)"><path fill="#c8ff3d" d="M 0.378906 0.640625 L 64.167969 0.640625 L 64.167969 64.429688 L 0.378906 64.429688 Z M 0.378906 0.640625 " fill-opacity="1" fill-rule="nonzero"/></g></g></g></g></g></g><g clip-path="url(#0c04aa9a10)"><g transform="matrix(1, 0, 0, 1, 1032, 738)"><g clip-path="url(#c32eed7bc1)"><g clip-path="url(#e64300c7df)"><path fill="#c8ff3d" d="M 0.367188 0.535156 L 64.15625 0.535156 L 64.15625 120.890625 L 0.367188 120.890625 Z M 0.367188 0.535156 " fill-opacity="1" fill-rule="nonzero"/></g></g></g></g><g clip-path="url(#8f284f2ec2)"><g clip-path="url(#59253e0808)"><g transform="matrix(1, 0, 0, 1, 1032, 706)"><g clip-path="url(#14e67bfa16)"><g clip-path="url(#6029a260c7)"><g clip-path="url(#354f18d5ac)"><path fill="#c8ff3d" d="M 0.367188 0.640625 L 64.15625 0.640625 L 64.15625 64.429688 L 0.367188 64.429688 Z M 0.367188 0.640625 " fill-opacity="1" fill-rule="nonzero"/></g></g></g></g></g></g><g transform="matrix(1, 0, 0, 1, 1100, 499)"><g clip-path="url(#9dd46739e6)"><g fill="#c8ff3d" fill-opacity="1"><g transform="translate(1.668984, 360.413121)"><g><path d="M 63.5 0 C 46.945312 0 33.484375 -4.765625 23.109375 -14.296875 C 12.734375 -23.835938 7.546875 -36.257812 7.546875 -51.5625 C 7.546875 -58.269531 9.007812 -64.921875 11.9375 -71.515625 C 14.875 -78.117188 19.90625 -84.460938 27.03125 -90.546875 L 109.09375 -163.796875 C 109.507812 -164.210938 109.820312 -164.628906 110.03125 -165.046875 C 110.238281 -165.472656 110.34375 -165.789062 110.34375 -166 C 110.34375 -166.414062 110.238281 -166.726562 110.03125 -166.9375 C 109.820312 -167.144531 109.507812 -167.351562 109.09375 -167.5625 C 108.675781 -167.78125 108.046875 -167.890625 107.203125 -167.890625 L 12.265625 -167.890625 L 12.265625 -220.078125 L 129.53125 -220.078125 C 140.632812 -220.078125 150.378906 -217.875 158.765625 -213.46875 C 167.148438 -209.070312 173.695312 -203.046875 178.40625 -195.390625 C 183.125 -187.742188 185.484375 -178.785156 185.484375 -168.515625 C 185.484375 -161.804688 184.015625 -155.148438 181.078125 -148.546875 C 178.148438 -141.941406 173.4375 -135.8125 166.9375 -130.15625 L 83.9375 -56.59375 C 83.726562 -56.382812 83.46875 -56.117188 83.15625 -55.796875 C 82.84375 -55.484375 82.632812 -55.222656 82.53125 -55.015625 C 82.425781 -54.804688 82.375 -54.492188 82.375 -54.078125 C 82.375 -53.660156 82.53125 -53.289062 82.84375 -52.96875 C 83.15625 -52.65625 83.625 -52.394531 84.25 -52.1875 C 84.882812 -51.976562 85.617188 -51.875 86.453125 -51.875 L 187.0625 -51.875 L 187.0625 0 Z M 63.5 0 "/></g></g></g></g></g><g clip-path="url(#907dffddbc)"><g clip-path="url(#9ed394133d)"><g transform="matrix(1, 0, 0, 1, 1038, 641)"><g clip-path="url(#dbcb3aeee1)"><g clip-path="url(#2bb7af6b37)"><g clip-path="url(#99abc0ee27)"><path fill="#c8ff3d" d="M 0.574219 0.683594 L 51.949219 0.683594 L 51.949219 52.058594 L 0.574219 52.058594 Z M 0.574219 0.683594 " fill-opacity="1" fill-rule="nonzero"/></g></g></g></g></g></g><g clip-path="url(#f3856429d2)"><g clip-path="url(#a1961e617a)"><g transform="matrix(1, 0, 0, 1, 694, 641)"><g clip-path="url(#442ae5740b)"><g clip-path="url(#e617b3ab87)"><g clip-path="url(#ca71a96fef)"><path fill="#c8ff3d" d="M 0.585938 0.683594 L 51.960938 0.683594 L 51.960938 52.058594 L 0.585938 52.058594 Z M 0.585938 0.683594 " fill-opacity="1" fill-rule="nonzero"/></g></g></g></g></g></g><g transform="matrix(1, 0, 0, 1, 120, 641)"><g clip-path="url(#e7b09ef3d2)"><g clip-path="url(#2e241dc371)"><g clip-path="url(#59dfc9f59b)"><path fill="#c8ff3d" d="M 133.59375 211.003906 L 114.578125 210.980469 L 83.203125 107.664062 L 70.351562 130.894531 L 61.652344 136.023438 L 1.082031 136.023438 L 1.082031 116.144531 L 55.792969 116.144531 L 77.183594 77.472656 L 95.394531 79.394531 L 124.136719 174.03125 L 175.160156 7.613281 L 194.144531 7.542969 L 228.300781 116.144531 L 272.261719 116.144531 L 272.261719 136.023438 L 221.007812 136.023438 L 211.523438 129.066406 L 184.785156 44.042969 Z M 133.59375 211.003906 " fill-opacity="1" fill-rule="nonzero"/></g></g><g clip-path="url(#b501c9e535)"><g clip-path="url(#717535424b)"><g transform="matrix(1, 0, 0, 1, 0.000000000000014211, 116)"><g clip-path="url(#3b073ce215)"><g clip-path="url(#4d77553e7d)"><g clip-path="url(#a5ac2802c0)"><path fill="#c8ff3d" d="M 0.359375 0.164062 L 20.273438 0.164062 L 20.273438 20.003906 L 0.359375 20.003906 Z M 0.359375 0.164062 " fill-opacity="1" fill-rule="nonzero"/></g></g></g></g></g></g><g clip-path="url(#c7982880aa)"><g clip-path="url(#3a57ba3de9)"><g transform="matrix(1, 0, 0, 1, 252, 116)"><g clip-path="url(#c7b9c932e9)"><g clip-path="url(#84c8eac3e5)"><g clip-path="url(#7fb0797901)"><path fill="#c8ff3d" d="M 0.398438 0.164062 L 20.3125 0.164062 L 20.3125 20.003906 L 0.398438 20.003906 Z M 0.398438 0.164062 " fill-opacity="1" fill-rule="nonzero"/></g></g></g></g></g></g><g clip-path="url(#880a6d997e)"><g clip-path="url(#2bfd9324fc)"><g transform="matrix(1, 0, 0, 1, 211, 116)"><g clip-path="url(#bab442173a)"><g clip-path="url(#de556b6327)"><g clip-path="url(#a432493498)"><path fill="#c8ff3d" d="M 0.0703125 0.164062 L 19.984375 0.164062 L 19.984375 20.003906 L 0.0703125 20.003906 Z M 0.0703125 0.164062 " fill-opacity="1" fill-rule="nonzero"/></g></g></g></g></g></g><g clip-path="url(#a243573acb)"><g clip-path="url(#4b2d5087a1)"><g transform="matrix(1, 0, 0, 1, 51, 116)"><g clip-path="url(#cb5883d61f)"><g clip-path="url(#a40f23df97)"><g clip-path="url(#fc375b5a22)"><path fill="#c8ff3d" d="M 0.652344 0.164062 L 20.566406 0.164062 L 20.566406 20.003906 L 0.652344 20.003906 Z M 0.652344 0.164062 " fill-opacity="1" fill-rule="nonzero"/></g></g></g></g></g></g><g clip-path="url(#b235862cfc)"><g clip-path="url(#fffaf9067a)"><g transform="matrix(1, 0, 0, 1, 75, 72)"><g clip-path="url(#01020fce24)"><g clip-path="url(#3151c601b6)"><g clip-path="url(#4483952913)"><path fill="#c8ff3d" d="M 0.90625 0.421875 L 20.820312 0.421875 L 20.820312 20.261719 L 0.90625 20.261719 Z M 0.90625 0.421875 " fill-opacity="1" fill-rule="nonzero"/></g></g></g></g></g></g><g clip-path="url(#7c7b75632b)"><g clip-path="url(#7c914654da)"><g transform="matrix(1, 0, 0, 1, 174, 0.000000000000113687)"><g clip-path="url(#9eaf881771)"><g clip-path="url(#d260929bb2)"><g clip-path="url(#5c584c451d)"><path fill="#c8ff3d" d="M 0.707031 0.683594 L 20.621094 0.683594 L 20.621094 20.519531 L 0.707031 20.519531 Z M 0.707031 0.683594 " fill-opacity="1" fill-rule="nonzero"/></g></g></g></g></g></g><g clip-path="url(#045b41b2b8)"><g clip-path="url(#8e4d38e92f)"><g transform="matrix(1, 0, 0, 1, 114, 198)"><g clip-path="url(#0017effeb5)"><g clip-path="url(#c82b7fef80)"><g clip-path="url(#c7ade387f6)"><path fill="#c8ff3d" d="M 0.0898438 0.175781 L 20.003906 0.175781 L 20.003906 20.011719 L 0.0898438 20.011719 Z M 0.0898438 0.175781 " fill-opacity="1" fill-rule="nonzero"/></g></g></g></g></g></g></g></g></svg>